HIERARCHY
ROOT hip
{
	OFFSET 0.000000 0.000000 0.000000 
	CHANNELS 6 Xposition Yposition Zposition Xrotation Zrotation Yrotation
	JOINT abdomen
	{
		OFFSET 0.000000 3.402643 0.000000 
		CHANNELS 3 Xrotation Zrotation Yrotation
		JOINT chest
		{
			OFFSET 0.000000 8.438565 -0.680529 
			CHANNELS 3 Xrotation Zrotation Yrotation
			JOINT neck
			{
				OFFSET 0.000000 10.207942 -0.272212 
				CHANNELS 3 Xrotation Zrotation Yrotation
				JOINT head
				{
					OFFSET 0.000000 3.130431 0.000000 
					CHANNELS 3 Xrotation Zrotation Yrotation
					End Site
					{
						OFFSET 0.000000 3.130435 0.000000 
					}
				}
			}
			JOINT lCollar
			{
				OFFSET 3.470700 6.669187 -0.816635 
				CHANNELS 3 Yrotation Zrotation Xrotation
				JOINT lShldr
				{
					OFFSET 3.198488 0.000000 0.000000 
					CHANNELS 3 Zrotation Yrotation Xrotation
					JOINT lForeArm
					{
						OFFSET 10.139888 0.000000 0.000000 
						CHANNELS 3 Yrotation Zrotation Xrotation
						JOINT lHand
						{
							OFFSET 8.370511 0.000000 0.000000 
							CHANNELS 3 Zrotation Yrotation Xrotation
							End Site
							{
								OFFSET 4.083176 0.000000 0.000000 
							}
						}
					}
				}
			}
			JOINT rCollar
			{
				OFFSET -3.470700 6.669187 -0.816635 
				CHANNELS 3 Yrotation Zrotation Xrotation
				JOINT rShldr
				{
					OFFSET -3.198488 0.000000 0.000000 
					CHANNELS 3 Zrotation Yrotation Xrotation
					JOINT rForeArm
					{
						OFFSET -10.139888 0.000000 0.000000 
						CHANNELS 3 Yrotation Zrotation Xrotation
						JOINT rHand
						{
							OFFSET -8.370511 0.000000 0.000000 
							CHANNELS 3 Zrotation Yrotation Xrotation
							End Site
							{
								OFFSET -4.083176 0.000000 0.000000 
							}
						}
					}
				}
			}
		}
	}
	JOINT lThigh
	{
		OFFSET 5.308129 -1.633274 1.361059 
		CHANNELS 3 Xrotation Zrotation Yrotation
		JOINT lShin
		{
			OFFSET -2.041588 -20.007561 0.000000 
			CHANNELS 3 Xrotation Zrotation Yrotation
			JOINT lFoot
			{
				OFFSET 0.000000 -19.190928 -1.224953 
				CHANNELS 3 Xrotation Yrotation Zrotation
				End Site
				{
					OFFSET 0.000000 -2.449906 4.627600 
				}
			}
		}
	}
	JOINT rThigh
	{
		OFFSET -5.308129 -1.633274 1.361059 
		CHANNELS 3 Xrotation Zrotation Yrotation
		JOINT rShin
		{
			OFFSET 2.041588 -20.007561 0.000000 
			CHANNELS 3 Xrotation Zrotation Yrotation
			JOINT rFoot
			{
				OFFSET 0.000000 -19.190928 -1.224953 
				CHANNELS 3 Xrotation Yrotation Zrotation
				End Site
				{
					OFFSET 0.000000 -2.449906 4.627600 
				}
			}
		}
	}
}
MOTION
Frames: 10
Frame Time: 0.011111
-0.116553 52.878883 0.423568 1.337230 0.648488 1.929729 18.124920 -3.253623 -0.585991 -24.930357 3.638220 0.249686 -13.055171 -15.588669 -8.537507 47.312469 31.477549 -9.003871 -5.882006 -4.835161 -0.307100 -71.202744 -27.047907 18.961508 -38.835167 4.309758 3.985733 8.524705 12.647240 -72.132217 7.622682 4.880849 -0.752038 -16.723400 17.963440 2.177581 25.603458 1.647971 0.048722 -8.534408 -12.637552 44.535015 6.601243 7.625226 -17.248789 9.157333 -6.005628 -1.995860 -20.735292 6.688481 -0.344403 12.899283 -8.514418 7.301678 -0.106353 5.940865 0.683857 -16.565039 -9.380877 0.418410 
-0.112761 52.875725 0.426411 1.356767 0.648293 1.910424 18.085396 -3.245376 -0.550263 -24.940142 3.618986 0.259322 -13.045524 -15.589434 -8.550320 47.258434 31.451044 -9.041552 -5.882006 -4.835161 -0.307100 -71.129280 -27.088726 18.793295 -38.774563 4.284822 3.964941 8.524705 12.647240 -72.268936 7.622682 4.880849 -0.752038 -16.723400 17.963440 2.177581 25.603458 1.647971 0.048722 -8.534408 -12.637552 44.535015 6.562323 7.596570 -17.231672 9.233366 -5.994917 -2.031508 -20.783562 6.694124 -0.326571 12.877644 -8.511676 7.311675 -0.105339 5.941063 0.693595 -16.605795 -9.340379 0.426707 
-0.075175 52.926258 0.460208 2.819803 0.484562 2.468255 16.164127 -2.844549 -0.816917 -24.519520 3.399713 0.152976 -12.994444 -15.571115 -8.559317 47.187607 31.422262 -9.075182 -5.882006 -4.835161 -0.307100 -71.070923 -27.091894 18.394831 -38.744839 4.279653 3.955788 8.524705 12.647240 -72.727913 7.622682 4.880849 -0.752038 -16.723400 17.963440 2.177581 25.603458 1.647971 0.048722 -8.534408 -12.637552 44.535015 4.686620 7.800213 -17.780924 9.278069 -5.998106 -2.026454 -20.573837 6.805905 -0.329120 11.400595 -8.372954 6.845822 -0.106342 5.940865 0.683857 -16.536671 -9.325846 0.440639 
-0.071385 52.925629 0.457365 2.858848 0.521894 2.470535 16.135162 -2.871708 -0.827464 -24.578253 3.341284 0.150611 -12.982593 -15.541226 -8.568935 47.163120 31.420406 -9.107913 -5.882006 -4.835161 -0.307100 -70.986877 -27.072430 18.441250 -38.674046 4.247824 3.927974 8.524705 12.647240 -72.708382 7.622682 4.880849 -0.752038 68.741913 19.350748 6.581380 44.366356 -6.202193 5.974578 -8.534408 -12.637552 14.622906 4.576714 7.727355 -17.795704 9.382440 -5.998513 -2.025470 -20.789310 6.785747 -0.282628 11.348019 -8.417518 6.828248 -0.116094 5.940725 0.682984 -16.578463 -9.304682 0.438176 
-0.069173 52.928158 0.459892 2.868626 0.521962 2.460870 16.125202 -2.855743 -0.844761 -24.558722 3.282649 0.152840 -13.049647 -15.503045 -8.556622 47.174946 31.409954 -9.095994 -5.882006 -4.835161 -0.307100 -70.883575 -27.119694 18.459581 -38.543598 4.206038 3.891085 8.524705 12.647240 -72.640030 7.622682 4.880849 -0.752038 68.800430 19.408331 6.535422 44.314529 -6.181408 5.949365 -8.534408 -12.637552 14.417826 4.551084 7.723755 -17.785196 9.442132 -5.994368 -2.059709 -21.169296 6.598407 -0.293582 11.343730 -8.423430 6.837922 -0.106345 5.940864 0.683857 -16.622755 -9.274951 0.428173 
-0.065068 52.930996 0.463998 2.878466 0.523504 2.421946 16.105495 -2.840804 -0.858884 -24.558718 3.292230 0.142894 -13.079935 -15.514469 -8.535155 47.159603 31.372927 -9.082243 -5.882006 -4.835161 -0.307100 -70.829132 -27.162699 18.437220 -38.432938 4.161856 3.847385 8.524705 12.647240 -72.669327 7.622682 4.880849 -0.752038 68.759598 19.422342 6.710049 44.232563 -6.158079 5.924177 -8.534408 -12.637552 14.408060 4.560563 7.703917 -17.747547 9.437654 -6.001533 -2.060217 -21.244242 6.489844 -0.298635 11.337939 -8.447243 6.873031 -0.116097 5.940909 0.692736 -16.591759 -9.253197 0.455454 
-0.063172 52.929417 0.468103 2.917599 0.524338 2.373538 16.027174 -2.838377 -0.834099 -24.588062 3.292491 0.150976 -13.081406 -15.540896 -8.519241 47.182564 31.353153 -9.048489 -5.882006 -4.835161 -0.307100 -70.761597 -27.095907 18.473595 -38.442688 4.161067 3.848383 8.524705 12.647240 -72.688850 7.622682 4.880849 -0.752038 68.761116 19.412683 6.713295 44.130421 -6.130213 5.888581 -8.534408 -12.637552 14.300640 4.501287 7.692496 -17.709496 9.516692 -6.004824 -2.057748 -21.063211 6.700532 -0.271770 11.292512 -8.459775 6.910985 -0.115055 5.940928 0.692721 -16.556753 -9.275970 0.433726 
-0.061276 52.930050 0.471262 2.966391 0.483811 2.362208 15.948041 -2.773651 -0.811535 -24.597868 3.253272 0.141405 -13.133969 -15.585604 -8.494318 47.293076 31.383907 -8.984314 -5.882006 -4.835161 -0.307100 -70.681755 -27.047407 18.500536 -38.472839 4.173989 3.863494 8.524705 12.647240 -72.708382 7.622682 4.880849 -0.752038 68.772087 19.404350 6.771364 44.099545 -6.120659 5.880785 -8.534408 -12.637552 14.427591 4.372777 7.700259 -17.706936 9.642739 -6.006648 -2.049893 -21.152138 6.746166 -0.238358 11.208216 -8.424604 6.946819 -0.106346 5.940865 0.683857 -16.627718 -9.243331 0.446202 
-0.058434 52.931629 0.473789 3.005411 0.404695 2.348686 15.878216 -2.671376 -0.777824 -24.597895 3.204643 0.152110 -13.195088 -15.605211 -8.479368 47.384758 31.376215 -8.961663 -5.882006 -4.835161 -0.307100 -70.593567 -27.057026 18.542564 -38.412983 4.155783 3.839337 8.524705 12.647240 -72.806038 7.622682 4.880849 -0.752038 68.806534 19.369692 6.994401 44.140881 -6.135931 5.897727 -8.534408 -12.637552 14.935404 4.237573 7.751029 -17.671413 9.809194 -5.995191 -2.103104 -21.372234 6.624837 -0.230409 11.132704 -8.358681 6.987288 -0.106347 5.940864 0.683857 -16.708191 -9.180739 0.441575 
-0.055591 52.928471 0.476000 3.024921 0.248893 2.321068 15.846011 -2.462401 -0.664012 -24.588163 3.126506 0.154150 -13.283524 -15.583411 -8.477473 47.427994 31.334558 -8.997283 -5.882006 -4.835161 -0.307100 -70.505371 -27.066654 18.613903 -38.362209 4.129686 3.819916 8.524705 12.647240 -72.698624 7.622682 4.880849 -0.752038 68.830002 19.343367 7.074716 44.212364 -6.153678 5.914713 -8.534408 -12.637552 15.140484 4.100479 7.875969 -17.629190 10.014395 -5.995302 -2.121661 -21.326693 6.653711 -0.249825 11.100733 -8.190092 7.062902 -0.106349 5.940865 0.683857 -16.739487 -9.183409 0.436229 
